<svg width="113" height="41" viewBox="0 0 113 41" fill="none" xmlns="http://www.w3.org/2000/svg">
<path d="M8.50263 22.6266L8.24755 40.2344C8.24755 40.2344 8.24756 40.3195 8.16253 40.3195H0.170053C0.170053 40.3195 0.0850263 40.3195 0.0850263 40.2344L0 0.935685C0 0.935685 0 0.850622 0.0850263 0.850622H6.462C6.462 0.850622 6.54703 0.850622 6.54703 0.935685L8.0775 6.03942C8.0775 6.03942 11.9887 0.255187 18.8758 0.255187C21.0015 0.255187 22.9571 0.76556 23.3822 0.850622L23.4673 0.935685L22.8721 8.59129C22.8721 8.59129 22.8721 8.67635 22.7871 8.67635C22.447 8.67635 21.1716 8.50622 20.2363 8.50622C13.2641 8.42116 8.50263 14.8008 8.50263 22.6266ZM67.4259 20.5851C67.4259 31.8133 57.9029 41 46.6795 41C35.456 41 25.933 31.8133 25.933 20.5851C25.933 9.35685 35.456 0.170124 46.6795 0.170124C57.9029 0.170124 67.4259 9.35685 67.4259 20.5851ZM58.8382 20.5851C58.8382 13.8651 53.3965 8.42116 46.6795 8.42116C39.9624 8.42116 34.5207 13.8651 34.5207 20.5851C34.5207 27.305 39.9624 32.749 46.6795 32.749C53.3965 32.749 58.8382 27.305 58.8382 20.5851ZM113 18.1183C113 18.9689 113 20.7552 112.405 23.6473H82.9007L82.9857 23.9025C84.2611 29.4315 88.8525 32.834 94.8894 32.834C100.331 32.834 104.242 29.7718 105.263 28.8361H105.348L110.024 34.7054V34.7905C108.919 35.8112 103.222 40.8299 94.7193 40.8299C82.7306 40.8299 73.7178 32.0685 73.7178 20.4149C73.7178 8.93154 82.5606 0 93.9541 0C104.497 0.170124 113 7.91079 113 18.1183ZM104.497 16.2469C104.497 12.8444 99.991 7.99585 93.7841 7.99585C87.6622 7.99585 83.7509 12.9295 82.9857 16.2469L82.9007 16.5021H104.497V16.2469Z" fill="#FA9370"/>
</svg>
