<svg width="90" height="64" viewBox="0 0 90 64" fill="none" xmlns="http://www.w3.org/2000/svg">
<path d="M54.2156 31.4089C59.7078 31.4089 63.6533 27.0894 64.8593 25.5749C65.0297 25.3642 65.3574 25.4827 65.3574 25.7593V30.4871H75.0442C75.7127 30.4871 76.2632 29.9339 76.2632 29.2623C74.2577 29.3018 73.5236 28.3931 73.5236 26.1675V20.3598L78.6096 30.4871H88.7814C89.4499 30.4871 90.0004 29.9339 90.0004 29.2623C87.9162 29.1306 86.92 28.1297 85.7403 26.0753L79.6582 15.5925C82.2667 12.366 84.7048 10.7989 87.7458 10.7989C87.8376 10.7989 87.9687 10.7989 88.0997 10.7989C88.0997 10.1272 87.5492 9.57412 86.8807 9.57412H78.2687C77.6002 9.57412 77.0497 10.1272 77.0497 10.7989C78.3474 10.7594 79.1339 11.3388 79.1339 12.287C79.1339 13.9464 77.3119 15.7901 73.5236 18.7268V0L61.8313 4.28004L64.1383 6.16326C65.187 6.99293 65.3574 7.3485 65.3574 8.65227V21.4924C65.3574 22.8488 63.5091 24.9559 63.5091 24.9559V24.9428C62.3294 26.1675 61.0317 26.7733 59.3801 26.7733C54.4646 26.7733 50.5978 22.4933 50.5978 15.7242C50.5978 12.1026 51.7251 10.2194 53.8617 10.2194C56.1687 10.2194 56.3784 11.9841 56.3784 15.2765C56.3784 17.0807 57.8465 18.6083 59.6423 18.5556C61.6216 18.4898 63.0241 16.9358 63.0241 14.9736C63.0241 11.431 60.1797 8.59959 55.2249 8.59959C52.446 8.59959 49.287 9.60046 47.2028 11.4442C44.7254 13.6698 43.3359 16.8568 43.3359 20.2676C43.349 26.9972 47.8713 31.4089 54.2156 31.4089Z" fill="#FA9370"/>
<path d="M11.4826 16.6066C8.14007 15.2502 6.2263 14.5917 6.2263 12.669C6.2263 11.2335 7.44534 10.18 9.35911 10.18C11.771 10.18 13.9469 11.4442 15.5985 14.46C16.2146 14.2362 16.6209 13.6567 16.6209 12.9982V9.78491C14.1042 8.99475 11.7972 8.65234 9.6606 8.65234C3.70956 8.65234 0.144188 11.6681 0.144188 16.1589C0.144188 19.8331 2.39876 21.2291 6.78994 23.0201C9.87032 24.2844 11.653 24.9428 11.653 27.3397C11.653 28.9068 10.565 29.8682 8.65128 29.8682C5.36117 29.8682 2.38566 27.6952 1.00932 23.4547C0.406348 23.6786 0 24.2449 0 24.9033V29.618C2.9493 30.8032 5.81995 31.409 8.65128 31.409C14.3926 31.409 18.2594 28.1825 18.2594 23.5864C18.2726 19.7014 15.9655 18.4372 11.4826 16.6066Z" fill="#FA9370"/>
<path d="M49.9928 51.8742C48.2887 52.2166 44.7889 51.7425 42.1149 50.0436C40.6205 49.0955 39.3884 47.4229 38.6281 45.2895L50.4122 40.8514C49.7306 36.1368 46.3094 33.2791 41.4463 33.2791C38.2349 33.2791 34.8792 34.9779 33.0966 37.4274C31.4056 39.6925 30.6191 42.1815 30.6191 45.0261C30.6191 47.818 31.4449 50.2675 33.1359 52.2693C35.1807 54.7188 38.0907 56.062 41.3022 56.062C44.3825 56.062 48.0266 54.6397 49.9928 51.8742ZM41.643 34.8857C43.465 34.8857 44.3825 36.15 44.3825 38.6785C44.3825 38.7575 44.3694 39.0604 44.3694 39.4555C44.3301 40.7461 43.5305 41.8918 42.3246 42.3527C42.0886 42.4449 39.5326 43.4063 38.248 43.8936C38.0645 43.1166 37.9334 42.3001 37.881 41.4572C37.4877 35.8734 39.6112 34.8857 41.643 34.8857Z" fill="#FA9370"/>
<path d="M41.9849 20.0306C41.9849 13.762 36.9383 8.66544 30.712 8.6391C30.6858 8.6391 30.6596 8.6391 30.6333 8.6391C24.3677 8.6391 19.2949 13.7488 19.2949 20.0306C19.2949 25.7461 23.4895 30.4871 28.9555 31.3036C29.4929 31.3562 30.0435 31.3826 30.6202 31.3826C31.2363 31.3826 31.8393 31.3431 32.416 31.2904C37.8427 30.4344 41.9849 25.7198 41.9849 20.0306ZM27.2384 19.9911C27.2384 13.3537 27.5005 10.2589 30.6333 10.2589C33.7137 10.2589 34.0676 13.3537 34.0676 19.9911C34.0676 26.6284 33.7137 29.7759 30.6333 29.7759C27.5005 29.7628 27.2384 26.6284 27.2384 19.9911Z" fill="#FA9370"/>
<path d="M81.0455 33.2658C80.2984 33.2658 77.6899 33.6609 76.6937 33.6609H66.181C65.5125 33.6609 64.962 34.214 64.962 34.8856C66.5218 34.8856 67.269 35.3202 67.269 36.545C67.269 36.9796 67.0986 38.0331 66.4825 39.2974L64.1755 44.2754L60.9641 37.8619C60.5708 37.1244 60.3611 36.5055 60.3611 36.0709C60.3611 35.3729 60.9641 34.9383 62.1045 34.8856C62.1045 34.214 61.5539 33.6609 60.8854 33.6609H49.547L56.5729 47.1595C57.8706 49.688 58.5784 51.7424 58.5784 53.4544C58.5784 56.0751 56.7695 58.9987 55.0655 58.9987C54.0168 58.9987 53.2434 58.4325 52.2866 57.7345C51.1068 56.8653 50.15 56.0751 48.7605 56.0751C46.8467 56.0751 45.418 57.4711 45.418 59.2621C45.418 61.5273 47.4235 63.371 50.5956 63.371C55.1965 63.371 59.142 58.4851 62.6681 51.0181L68.1866 39.4027C69.6678 36.3474 70.7557 34.8988 73.0496 34.8988H74.3998C74.7012 34.8988 74.8323 35.2939 74.5964 35.4651C74.557 35.4914 73.2069 36.7425 72.7088 37.4273C71.0179 39.6925 70.2314 42.1815 70.2314 45.026C70.2314 47.818 71.0572 50.2675 72.7481 52.2692C74.793 54.7187 77.703 56.062 80.9144 56.062C83.9555 56.062 87.5995 54.6397 89.5788 51.8741C87.8748 52.2165 84.3749 51.7424 81.7009 50.0436C80.2066 49.0954 78.9744 47.4229 78.2142 45.2894L89.9983 40.8514C89.3298 36.1236 85.8955 33.2658 81.0455 33.2658ZM83.9424 39.4554C83.903 40.746 83.1035 41.8917 81.8975 42.3527C81.6616 42.4449 79.1055 43.4062 77.8209 43.8935C77.6374 43.1165 77.5063 42.3 77.4539 41.4571C77.0738 35.8733 79.1973 34.8856 81.229 34.8856C83.051 34.8856 83.9686 36.1499 83.9686 38.6784C83.9555 38.7706 83.9424 39.0603 83.9424 39.4554Z" fill="#FA9370"/>
</svg>
