<svg width="125" height="125" viewBox="0 0 125 125" fill="none" xmlns="http://www.w3.org/2000/svg">
<path d="M62.5 125C97.0178 125 125 97.0178 125 62.5C125 27.9822 97.0178 0 62.5 0C27.9822 0 0 27.9822 0 62.5C0 97.0178 27.9822 125 62.5 125Z" fill="#FA9370"/>
<path d="M28.8504 51.75L14.9004 49.35L15.6004 47.9L26.0504 49.8C26.6504 49.95 27.1504 50.05 27.5004 50.1L26.3504 49.2L18.2004 42.4L18.9504 40.8L29.3504 42.8C30.0004 42.95 30.4504 43.05 30.8004 43.1L29.6504 42.2L21.5504 35.3L22.2504 33.85L32.9004 43.2L32.1504 44.75L20.3504 42.5L29.5004 50.25L28.8504 51.75Z" fill="#F2E9DB"/>
<path d="M40.8006 20.6C42.6006 21 44.0506 22.1 45.2006 23.85C46.3506 25.6 46.7506 27.4 46.4006 29.15C46.0506 30.95 45.1006 32.35 43.5506 33.4C42.0006 34.4 40.3006 34.75 38.5506 34.3C36.7506 33.9 35.3006 32.8 34.1506 31.05C33.0006 29.3 32.6006 27.5 32.9506 25.75C33.3006 23.95 34.2506 22.55 35.8006 21.5C37.3506 20.45 39.0006 20.2 40.8006 20.6ZM38.9506 32.8C40.3006 33.15 41.5506 32.95 42.7506 32.2C43.9506 31.45 44.6506 30.35 44.8506 28.95C45.0506 27.55 44.7006 26.15 43.8006 24.75C42.9006 23.35 41.7506 22.45 40.4006 22.1C39.0506 21.75 37.8006 21.95 36.6006 22.7C35.4006 23.5 34.7006 24.55 34.5006 25.95C34.3006 27.35 34.6506 28.75 35.5506 30.15C36.4506 31.55 37.6006 32.45 38.9506 32.8Z" fill="#F2E9DB"/>
<path d="M54.701 27.75L54.251 14.1L56.001 14.05L61.301 26.15L65.801 13.7L67.551 13.65L68.001 27.3L66.451 27.35L66.101 16.85L65.451 18.8L62.201 27.5L60.501 27.55L56.651 19.05C56.251 18 55.951 17.4 55.901 17.15L56.251 27.65L54.701 27.75Z" fill="#F2E9DB"/>
<path d="M81.4 17.55L81.85 23.4L86.85 20.25L88.5 21.05L82.2 24.9L83 33.6L81.35 32.8L80.7 25.75L74.7 29.55L73 28.7L80.4 24.2L79.65 16.8L81.4 17.55Z" fill="#F2E9DB"/>
<path d="M87 36.95L97.8 28.6L98.85 29.95L94.7 41.4C94.5 41.95 94.3 42.35 94.2 42.5L103.15 35.55L104.1 36.8L93.3 45.15L92.25 43.8L96.4 32.35C96.6 31.8 96.8 31.4 96.9 31.25L87.95 38.2L87 36.95Z" fill="#F2E9DB"/>
<path d="M97.9508 59.5L111.051 66.15L110.901 67.85L96.8008 72L96.9508 70.35L101.101 69.15L101.651 63.15L97.8008 61.2L97.9508 59.5ZM108.051 66.35L102.951 63.8L102.501 68.75L107.951 67.2C108.451 67.05 108.801 66.95 109.101 66.9L108.051 66.35Z" fill="#F2E9DB"/>
<path d="M106.65 79.95L107.95 80.6L103.25 89.6L101.95 88.95L103.95 85.2L93.1504 79.5L93.9004 78.05L104.7 83.75L106.65 79.95Z" fill="#F2E9DB"/>
<path d="M77.8508 94.35L85.7008 106.15L84.1508 106.65L78.3508 97.75C78.0008 97.2 77.7508 96.8 77.6008 96.5L77.7508 97.95L78.3508 108.55L76.7008 109.1L71.0008 100.1C70.6508 99.55 70.4008 99.1 70.2508 98.85L70.3508 100.3L70.9008 110.95L69.3508 111.45L68.8008 97.3L70.4008 96.8L76.9008 106.9L76.2508 94.9L77.8508 94.35Z" fill="#F2E9DB"/>
<path d="M47.0005 107.05C46.1005 105.45 45.8505 103.65 46.3505 101.65C46.8505 99.6 47.8505 98.1 49.4005 97.1C50.9505 96.1 52.6005 95.85 54.4505 96.25C56.3005 96.65 57.6505 97.7 58.5505 99.25C59.4505 100.85 59.7005 102.65 59.2005 104.65C58.7005 106.7 57.7005 108.2 56.1505 109.2C54.6005 110.2 52.9505 110.45 51.1005 110.05C49.2505 109.65 47.9005 108.65 47.0005 107.05ZM57.1505 100.05C56.5005 98.8 55.4505 98.05 54.1005 97.7C52.7005 97.35 51.4505 97.6 50.3005 98.4C49.1505 99.2 48.4005 100.4 48.0005 102.05C47.6005 103.7 47.7505 105.1 48.4005 106.35C49.0505 107.6 50.1005 108.35 51.4505 108.7C52.8505 109.05 54.1005 108.8 55.2505 108C56.4005 107.2 57.1505 106 57.5505 104.35C57.9505 102.7 57.8005 101.25 57.1505 100.05Z" fill="#F2E9DB"/>
<path d="M36.6501 86.35L35.2501 93L37.5501 95.05L41.5001 90.6L42.7501 91.7L33.7001 101.9L29.6501 98.3C28.6501 97.4 28.1001 96.45 28.0001 95.35C27.9001 94.25 28.2001 93.3 28.9501 92.5C29.6001 91.8 30.3501 91.4 31.2501 91.25C32.1501 91.15 33.0501 91.35 33.9501 91.85L35.4001 85.1L36.6501 86.35ZM33.4001 99.75L36.6001 96.15L33.9501 93.8C33.2001 93.15 32.5001 92.8 31.8501 92.75C31.2001 92.7 30.6001 93 30.0501 93.55C29.5001 94.1 29.3501 94.75 29.4501 95.4C29.5501 96.05 30.0001 96.7 30.7001 97.35L33.4001 99.75Z" fill="#F2E9DB"/>
<path d="M31.9504 80.1L19.4004 85.4L18.7504 83.9L24.5004 81.5L22.9004 80.95L16.4504 78.5L15.6504 76.6L22.1504 79L28.0504 70.9L28.8004 72.65L23.7504 79.6L26.4504 80.6L31.3004 78.55L31.9504 80.1Z" fill="#F2E9DB"/>
<path d="M61.6504 68.95V67.1H63.3504V68.95H61.6504ZM61.7004 60.15V56H63.2504V60.15L63.0504 65.5H61.9004L61.7004 60.15Z" fill="#F2E9DB"/>
</svg>
